<svg xmlns="http://www.w3.org/2000/svg" width="800" height="500" viewBox="0 0 800 500">
  <defs>
    <linearGradient id="bg2" x1="0%" y1="0%" x2="100%" y2="100%">
      <stop offset="0%" style="stop-color:#f0f4ff"/>
      <stop offset="100%" style="stop-color:#e8eeff"/>
    </linearGradient>
    <linearGradient id="sidebar" x1="0%" y1="0%" x2="100%" y2="0%">
      <stop offset="0%" style="stop-color:#1a1a2e"/>
      <stop offset="100%" style="stop-color:#252545"/>
    </linearGradient>
    <linearGradient id="accentB" x1="0%" y1="0%" x2="100%" y2="0%">
      <stop offset="0%" style="stop-color:#e94560"/>
      <stop offset="100%" style="stop-color:#d63450"/>
    </linearGradient>
    <linearGradient id="card1" x1="0%" y1="0%" x2="100%" y2="100%">
      <stop offset="0%" style="stop-color:#e94560"/>
      <stop offset="100%" style="stop-color:#c73050"/>
    </linearGradient>
    <linearGradient id="card2" x1="0%" y1="0%" x2="100%" y2="100%">
      <stop offset="0%" style="stop-color:#1a1a2e"/>
      <stop offset="100%" style="stop-color:#252545"/>
    </linearGradient>
  </defs>

  <!-- Background -->
  <rect width="800" height="500" fill="url(#bg2)"/>

  <!-- Sidebar -->
  <rect x="0" y="0" width="180" height="500" fill="url(#sidebar)"/>

  <!-- Logo in sidebar -->
  <rect x="20" y="24" width="140" height="36" rx="8" fill="rgba(233,69,96,0.15)" stroke="rgba(233,69,96,0.3)" stroke-width="1"/>
  <text x="32" y="47" font-family="Arial" font-size="16" font-weight="900" fill="#e94560">Banca</text>
  <text x="97" y="47" font-family="Arial" font-size="16" font-weight="900" fill="white">sure</text>

  <!-- Sidebar nav items -->
  <rect x="14" y="84" width="152" height="32" rx="6" fill="rgba(233,69,96,0.2)"/>
  <rect x="22" y="93" width="12" height="12" rx="3" fill="#e94560"/>
  <rect x="42" y="95" width="80" height="8" rx="3" fill="rgba(255,255,255,0.7)"/>

  <rect x="22" y="135" width="12" height="12" rx="3" fill="rgba(255,255,255,0.2)"/>
  <rect x="42" y="137" width="70" height="8" rx="3" fill="rgba(255,255,255,0.3)"/>

  <rect x="22" y="167" width="12" height="12" rx="3" fill="rgba(255,255,255,0.2)"/>
  <rect x="42" y="169" width="90" height="8" rx="3" fill="rgba(255,255,255,0.3)"/>

  <rect x="22" y="199" width="12" height="12" rx="3" fill="rgba(255,255,255,0.2)"/>
  <rect x="42" y="201" width="60" height="8" rx="3" fill="rgba(255,255,255,0.3)"/>

  <rect x="22" y="231" width="12" height="12" rx="3" fill="rgba(255,255,255,0.2)"/>
  <rect x="42" y="233" width="75" height="8" rx="3" fill="rgba(255,255,255,0.3)"/>

  <!-- Sidebar tech badge -->
  <rect x="14" y="420" width="152" height="64" rx="8" fill="rgba(255,255,255,0.04)" stroke="rgba(255,255,255,0.08)" stroke-width="1"/>
  <text x="30" y="441" font-family="Arial" font-size="9" fill="rgba(255,255,255,0.4)">BUILT WITH</text>
  <rect x="22" y="449" width="44" height="16" rx="3" fill="#007acc"/>
  <text x="27" y="461" font-family="Arial" font-size="9" font-weight="700" fill="white">TS</text>
  <rect x="72" y="449" width="44" height="16" rx="3" fill="#336791"/>
  <text x="77" y="461" font-family="Arial" font-size="9" font-weight="700" fill="white">PG</text>
  <rect x="122" y="449" width="36" height="16" rx="3" fill="#3776ab"/>
  <text x="127" y="461" font-family="Arial" font-size="9" font-weight="700" fill="white">Py</text>

  <!-- Top bar -->
  <rect x="180" y="0" width="620" height="60" fill="white" opacity="0.7"/>
  <text x="204" y="37" font-family="Arial" font-size="18" font-weight="700" fill="#1a1a2e">Dashboard</text>
  <rect x="580" y="14" width="80" height="32" rx="6" fill="url(#accentB)"/>
  <text x="596" y="34" font-family="Arial" font-size="11" font-weight="700" fill="white">+ New</text>
  <circle cx="700" cy="30" r="16" fill="rgba(233,69,96,0.15)" stroke="rgba(233,69,96,0.3)" stroke-width="1"/>
  <text x="693" y="35" font-family="Arial" font-size="13" fill="#e94560">BN</text>

  <!-- Stat cards row -->
  <rect x="200" y="80" width="145" height="90" rx="10" fill="url(#card1)"/>
  <text x="218" y="106" font-family="Arial" font-size="10" fill="rgba(255,255,255,0.7)">TOTAL POLICIES</text>
  <text x="218" y="138" font-family="Arial" font-size="28" font-weight="900" fill="white">1,284</text>
  <text x="218" y="158" font-family="Arial" font-size="9" fill="rgba(255,255,255,0.6)">▲ 12% this month</text>

  <rect x="358" y="80" width="145" height="90" rx="10" fill="url(#card2)"/>
  <text x="376" y="106" font-family="Arial" font-size="10" fill="rgba(255,255,255,0.7)">ACTIVE CLAIMS</text>
  <text x="376" y="138" font-family="Arial" font-size="28" font-weight="900" fill="white">349</text>
  <text x="376" y="158" font-family="Arial" font-size="9" fill="rgba(255,255,255,0.5)">▼ 3% this week</text>

  <rect x="516" y="80" width="145" height="90" rx="10" fill="white" stroke="rgba(0,0,0,0.06)" stroke-width="1"/>
  <text x="534" y="106" font-family="Arial" font-size="10" fill="#999">REVENUE</text>
  <text x="534" y="138" font-family="Arial" font-size="28" font-weight="900" fill="#1a1a2e">$84K</text>
  <text x="534" y="158" font-family="Arial" font-size="9" fill="#e94560">▲ 8% this month</text>

  <!-- Chart area -->
  <rect x="200" y="188" width="300" height="180" rx="10" fill="white" stroke="rgba(0,0,0,0.06)" stroke-width="1"/>
  <text x="218" y="212" font-family="Arial" font-size="12" font-weight="700" fill="#1a1a2e">Claims Overview</text>
  <!-- Chart bars -->
  <rect x="226" y="290" width="24" height="50" rx="4" fill="rgba(233,69,96,0.2)"/>
  <rect x="262" y="270" width="24" height="70" rx="4" fill="rgba(233,69,96,0.3)"/>
  <rect x="298" y="255" width="24" height="85" rx="4" fill="rgba(233,69,96,0.5)"/>
  <rect x="334" y="240" width="24" height="100" rx="4" fill="url(#accentB)"/>
  <rect x="370" y="260" width="24" height="80" rx="4" fill="rgba(233,69,96,0.4)"/>
  <rect x="406" y="275" width="24" height="65" rx="4" fill="rgba(233,69,96,0.25)"/>
  <rect x="442" y="248" width="24" height="92" rx="4" fill="rgba(233,69,96,0.45)"/>
  <!-- x-axis -->
  <line x1="218" y1="345" x2="488" y2="345" stroke="rgba(0,0,0,0.08)" stroke-width="1"/>
  <text x="228" y="358" font-family="Arial" font-size="8" fill="#aaa">Jan</text>
  <text x="264" y="358" font-family="Arial" font-size="8" fill="#aaa">Feb</text>
  <text x="300" y="358" font-family="Arial" font-size="8" fill="#aaa">Mar</text>
  <text x="336" y="358" font-family="Arial" font-size="8" fill="#aaa">Apr</text>
  <text x="372" y="358" font-family="Arial" font-size="8" fill="#aaa">May</text>
  <text x="408" y="358" font-family="Arial" font-size="8" fill="#aaa">Jun</text>
  <text x="444" y="358" font-family="Arial" font-size="8" fill="#aaa">Jul</text>

  <!-- Recent policies table -->
  <rect x="516" y="188" width="265" height="180" rx="10" fill="white" stroke="rgba(0,0,0,0.06)" stroke-width="1"/>
  <text x="534" y="212" font-family="Arial" font-size="12" font-weight="700" fill="#1a1a2e">Recent Policies</text>
  <!-- table rows -->
  <rect x="524" y="222" width="249" height="1" fill="rgba(0,0,0,0.05)"/>
  <rect x="524" y="223" width="36" height="22" rx="4" fill="rgba(233,69,96,0.1)"/>
  <text x="529" y="238" font-family="Arial" font-size="9" fill="#e94560">Life</text>
  <rect x="566" y="227" width="80" height="6" rx="2" fill="rgba(0,0,0,0.1)"/>
  <rect x="566" y="237" width="50" height="4" rx="2" fill="rgba(0,0,0,0.06)"/>
  <rect x="700" y="225" width="50" height="18" rx="3" fill="rgba(40,200,100,0.12)"/>
  <text x="712" y="237" font-family="Arial" font-size="9" fill="#28c864">Active</text>

  <rect x="524" y="254" width="249" height="1" fill="rgba(0,0,0,0.05)"/>
  <rect x="524" y="255" width="50" height="22" rx="4" fill="rgba(26,26,46,0.08)"/>
  <text x="529" y="270" font-family="Arial" font-size="9" fill="#1a1a2e">Health</text>
  <rect x="580" y="259" width="70" height="6" rx="2" fill="rgba(0,0,0,0.1)"/>
  <rect x="580" y="269" width="90" height="4" rx="2" fill="rgba(0,0,0,0.06)"/>
  <rect x="700" y="257" width="56" height="18" rx="3" fill="rgba(233,69,96,0.1)"/>
  <text x="706" y="269" font-family="Arial" font-size="9" fill="#e94560">Pending</text>

  <rect x="524" y="286" width="249" height="1" fill="rgba(0,0,0,0.05)"/>
  <rect x="524" y="287" width="40" height="22" rx="4" fill="rgba(233,69,96,0.1)"/>
  <text x="529" y="302" font-family="Arial" font-size="9" fill="#e94560">Auto</text>
  <rect x="570" y="291" width="85" height="6" rx="2" fill="rgba(0,0,0,0.1)"/>
  <rect x="570" y="301" width="55" height="4" rx="2" fill="rgba(0,0,0,0.06)"/>
  <rect x="700" y="289" width="50" height="18" rx="3" fill="rgba(40,200,100,0.12)"/>
  <text x="712" y="301" font-family="Arial" font-size="9" fill="#28c864">Active</text>

  <rect x="524" y="318" width="249" height="1" fill="rgba(0,0,0,0.05)"/>
  <rect x="524" y="319" width="48" height="22" rx="4" fill="rgba(26,26,46,0.08)"/>
  <text x="529" y="334" font-family="Arial" font-size="9" fill="#1a1a2e">Travel</text>
  <rect x="578" y="323" width="65" height="6" rx="2" fill="rgba(0,0,0,0.1)"/>
  <rect x="578" y="333" width="80" height="4" rx="2" fill="rgba(0,0,0,0.06)"/>
  <rect x="700" y="321" width="56" height="18" rx="3" fill="rgba(255,165,0,0.12)"/>
  <text x="706" y="333" font-family="Arial" font-size="9" fill="#e94560">Review</text>

  <!-- Bottom row -->
  <rect x="200" y="382" width="580" height="80" rx="10" fill="white" stroke="rgba(0,0,0,0.06)" stroke-width="1"/>
  <text x="218" y="406" font-family="Arial" font-size="12" font-weight="700" fill="#1a1a2e">Quick Actions</text>
  <rect x="218" y="415" width="100" height="30" rx="6" fill="url(#accentB)"/>
  <text x="234" y="434" font-family="Arial" font-size="10" font-weight="600" fill="white">New Claim</text>
  <rect x="330" y="415" width="100" height="30" rx="6" fill="rgba(26,26,46,0.07)" stroke="rgba(26,26,46,0.12)" stroke-width="1"/>
  <text x="342" y="434" font-family="Arial" font-size="10" font-weight="600" fill="#1a1a2e">View Reports</text>
  <rect x="442" y="415" width="100" height="30" rx="6" fill="rgba(26,26,46,0.07)" stroke="rgba(26,26,46,0.12)" stroke-width="1"/>
  <text x="452" y="434" font-family="Arial" font-size="10" font-weight="600" fill="#1a1a2e">Manage Users</text>
  <rect x="554" y="415" width="100" height="30" rx="6" fill="rgba(26,26,46,0.07)" stroke="rgba(26,26,46,0.12)" stroke-width="1"/>
  <text x="566" y="434" font-family="Arial" font-size="10" font-weight="600" fill="#1a1a2e">Settings</text>
</svg>
